<svg width="100" height="100" viewBox="0 0 100 100" fill="none" xmlns="http://www.w3.org/2000/svg">
<g clip-path="url(#clip0_9_550)">
<path d="M99.9804 15.9378C99.6679 9.55109 95.7031 5.76203 94.9219 5.07844C94.2383 4.29719 90.4492 0.351875 84.0429 0.0393748C77.7148 -0.292656 71.0547 3.00813 64.2773 9.805C63.8281 10.2542 53.1836 20.9964 49.414 32.0706C48.1055 35.9378 45.7812 39.2972 42.7148 41.8363C40.9765 43.262 39.2773 44.18 37.6562 44.5706C36.1914 44.9222 35 45.8792 34.3945 47.2464C33.789 48.5745 33.8672 50.098 34.6094 51.4456C35.7617 53.5355 36.7578 55.3519 40.7031 59.3167C44.668 63.2816 46.4844 64.2777 48.6328 65.4495C49.3359 65.8402 50.1172 66.0355 50.8789 66.0355C51.5234 66.0355 52.168 65.8988 52.7734 65.6253C54.1211 65.0198 55.0976 63.8284 55.4492 62.3636C55.8203 60.7425 56.7383 59.0433 58.1836 57.305C60.7031 54.2386 64.082 51.9144 67.9492 50.6058C79.0234 46.8363 89.7656 36.1917 90.2148 35.7425C97.0117 28.9261 100.293 22.2659 99.9804 15.9378ZM87.8515 33.3597C87.7539 33.4573 77.2265 43.9066 66.875 47.4222C62.4219 48.9261 58.5351 51.6019 55.625 55.1566C53.8672 57.305 52.7148 59.4534 52.2265 61.5823C52.1289 62.0316 51.8359 62.3831 51.4453 62.5589C51.2305 62.6566 50.7812 62.7737 50.1953 62.4612C48.2422 61.387 46.6992 60.5472 43.0859 56.9339C39.4531 53.3011 38.6133 51.7581 37.5 49.7464C37.2265 49.2386 37.3437 48.7894 37.4414 48.5745C37.6172 48.1839 37.9687 47.8909 38.418 47.7933C40.5273 47.305 42.6953 46.1527 44.8437 44.3948C48.3984 41.4847 51.0742 37.5784 52.5781 33.1448C56.0937 22.8128 66.543 12.2659 66.6406 12.1683C72.5 6.32844 78.0664 3.35969 83.2226 3.35969C83.4179 3.35969 83.6328 3.35969 83.8281 3.37922C89.2969 3.63312 92.3242 7.18781 92.4609 7.34406C92.5195 7.42219 92.6172 7.50031 92.6953 7.57844C92.8515 7.69562 96.4062 10.7425 96.6601 16.2112C96.8945 21.5042 93.9258 27.2855 87.8515 33.3597Z" fill="#E04141"/>
<path d="M89.7852 9.33599C86.875 6.36724 82.7149 5.54693 78.6719 7.10943C77.8125 7.44146 77.3828 8.39849 77.7149 9.25787C78.0469 10.1172 79.0039 10.5469 79.8633 10.2149C82.6367 9.14068 85.4492 9.68755 87.4024 11.6602C87.7344 11.9922 88.1641 12.168 88.5938 12.168C89.0235 12.168 89.4336 12.0118 89.7656 11.6993C90.4297 11.0352 90.4297 9.98052 89.7852 9.33599Z" fill="#E04141"/>
<path d="M75.4102 10.6639C74.8437 9.94124 73.7891 9.82405 73.0664 10.3905C71.0742 11.953 69.1406 13.7498 67.3047 15.742C66.6797 16.4256 66.7187 17.4803 67.4023 18.1053C67.7148 18.3983 68.125 18.5545 68.5351 18.5545C68.9844 18.5545 69.4336 18.3787 69.7656 18.0272C71.4844 16.1717 73.3008 14.492 75.1562 13.0272C75.8594 12.4412 75.9766 11.3866 75.4102 10.6639Z" fill="#E04141"/>
<path d="M48.9648 62.8125L37.1875 51.0352C36.543 50.3906 35.4883 50.3906 34.8242 51.0352L30.1172 55.7422C29.8047 56.0547 29.6289 56.4844 29.6289 56.9141C29.6289 57.3633 29.8047 57.7734 30.1172 58.0859L41.8945 69.8633C42.207 70.1758 42.6367 70.3516 43.0664 70.3516C43.5156 70.3516 43.9258 70.1758 44.2383 69.8633L48.9453 65.1563C49.2578 64.8438 49.4336 64.4141 49.4336 63.9844C49.4531 63.5547 49.2773 63.125 48.9648 62.8125ZM43.0664 66.3477L33.6328 56.9141L35.9961 54.5508L45.4297 63.9844L43.0664 66.3477Z" fill="#E04141"/>
<path d="M23.9648 82.8516C23.7109 82.7539 23.5938 82.5586 23.5352 82.4414C23.4961 82.3242 23.4375 82.1094 23.5547 81.8555C24.2969 80.293 23.9844 78.4766 22.7539 77.2461C21.5234 76.0156 19.707 75.7031 18.1445 76.4453C17.8906 76.5625 17.6758 76.5039 17.5586 76.4648C17.4414 76.4258 17.2461 76.3086 17.1484 76.0352C16.5625 74.3945 15.0586 73.3398 13.3203 73.3398C11.582 73.3398 10.0781 74.3945 9.49219 76.0352C9.39453 76.3086 9.19922 76.4258 9.08203 76.4648C8.96484 76.5039 8.75 76.5625 8.49609 76.4453C6.93359 75.7031 5.11719 76.0156 3.88672 77.2461C2.65625 78.4766 2.34375 80.293 3.08594 81.8555C3.20312 82.1094 3.14453 82.3242 3.10547 82.4414C3.06641 82.5586 2.94922 82.7539 2.67578 82.8516C1.05469 83.418 0 84.9219 0 86.6602C0 88.3984 1.05469 89.9023 2.69531 90.4883C2.94922 90.5859 3.06641 90.7812 3.125 90.8984C3.16406 91.0156 3.22266 91.2305 3.10547 91.4844C2.36328 93.0469 2.67578 94.8633 3.90625 96.0938C5.13672 97.3242 6.95312 97.6367 8.51562 96.8945C8.76953 96.7773 8.98438 96.8359 9.10156 96.875C9.21875 96.9141 9.41406 97.0313 9.51172 97.3047C10.0977 98.9453 11.6016 100 13.3398 100C15.0781 100 16.582 98.9453 17.168 97.3047C17.2656 97.0313 17.4609 96.9141 17.5781 96.875C17.6953 96.8359 17.9102 96.7773 18.1641 96.8945C19.7266 97.6367 21.543 97.3242 22.7734 96.0938C24.0039 94.8633 24.3164 93.0469 23.5742 91.4844C23.457 91.2305 23.5156 91.0156 23.5547 90.8984C23.5938 90.7812 23.7109 90.5859 23.9844 90.4883C25.625 89.9023 26.6797 88.3984 26.6797 86.6602C26.6602 84.9219 25.6055 83.418 23.9648 82.8516ZM22.8516 87.3438C21.7773 87.7344 20.8984 88.5547 20.4688 89.6094C20.0391 90.6641 20.0586 91.875 20.5469 92.9102C20.7422 93.3203 20.5469 93.5937 20.4102 93.7305C20.2734 93.8672 19.9805 94.0625 19.5898 93.8672C18.5547 93.3789 17.3438 93.3398 16.2891 93.7891C15.2344 94.2383 14.3945 95.0977 14.0234 96.1719C13.8672 96.582 13.5352 96.6602 13.3398 96.6602C13.1445 96.6602 12.8125 96.6016 12.6563 96.1719C12.2656 95.0977 11.4453 94.2188 10.3906 93.7891C9.90234 93.5938 9.375 93.4766 8.82812 93.4766C8.22266 93.4766 7.63672 93.6133 7.08984 93.8672C6.69922 94.0625 6.40625 93.8672 6.26953 93.7305C6.13281 93.5937 5.9375 93.3008 6.13281 92.9102C6.62109 91.875 6.66016 90.6836 6.21094 89.6094C5.76172 88.5352 4.90234 87.7148 3.82812 87.3438C3.41797 87.1875 3.33984 86.8555 3.33984 86.6602C3.33984 86.4648 3.39844 86.1328 3.82812 85.9766C4.90234 85.5859 5.78125 84.7656 6.21094 83.7109C6.64062 82.6563 6.62109 81.4453 6.13281 80.4102C5.9375 80 6.13281 79.7266 6.26953 79.5898C6.40625 79.4531 6.69922 79.2578 7.08984 79.4531C8.125 79.9414 9.33594 79.9805 10.3906 79.5313C11.4453 79.082 12.2852 78.2227 12.6563 77.1484C12.8125 76.7383 13.1445 76.6602 13.3398 76.6602C13.5352 76.6602 13.8672 76.7188 14.0234 77.1484C14.4141 78.2227 15.2344 79.1016 16.2891 79.5313C17.3438 79.9609 18.5547 79.9414 19.5898 79.4531C20 79.2578 20.2734 79.4531 20.4102 79.5898C20.5469 79.7266 20.7422 80.0195 20.5469 80.4102C20.0586 81.4453 20.0195 82.6563 20.4688 83.7109C20.8984 84.7656 21.7773 85.6055 22.8516 85.9766C23.2617 86.1328 23.3398 86.4648 23.3398 86.6602C23.3398 86.8555 23.2617 87.207 22.8516 87.3438Z" fill="#E04141"/>
<path d="M40.7227 64.0039L36.0156 59.2969C35.7031 58.9844 35.2734 58.8086 34.8438 58.8086C34.4141 58.8086 33.9844 58.9844 33.6719 59.2969L16.0547 76.9141C15.6445 77.3242 15.4688 77.9492 15.625 78.5156C15.7813 79.082 16.2109 79.5312 16.7969 79.6875C17.7539 79.9414 18.75 79.8633 19.6289 79.4531C20.0391 79.2578 20.3125 79.4531 20.4492 79.5898C20.5859 79.7266 20.7813 80.0195 20.5859 80.4102C20.1758 81.2891 20.0977 82.2852 20.3516 83.2422C20.5078 83.8086 20.957 84.2578 21.5234 84.4141C21.6602 84.4531 21.7969 84.4727 21.9531 84.4727C22.3828 84.4727 22.8125 84.2969 23.125 83.9844L40.7422 66.3672C41.3672 65.7031 41.3672 64.6484 40.7227 64.0039ZM23.6914 78.6719C23.4961 78.1445 23.1836 77.6562 22.7539 77.2461C22.3438 76.8359 21.8555 76.5234 21.3281 76.3086L34.8242 62.8125L37.1875 65.1758L23.6914 78.6719Z" fill="#E04141"/>
<path d="M15.0586 81.6602H11.6016C9.80469 81.6602 8.32031 83.125 8.32031 84.9414V88.3984C8.32031 90.1953 9.78516 91.6797 11.6016 91.6797H15.0586C16.8555 91.6797 18.3398 90.2148 18.3398 88.3984V84.9414C18.3398 83.1445 16.8555 81.6602 15.0586 81.6602ZM15 88.3398L11.6602 88.3984L11.6016 85L15 84.9414V88.3398Z" fill="#E04141"/>
</g>
<defs>
<clipPath id="clip0_9_550">
<rect width="100" height="100" fill="white"/>
</clipPath>
</defs>
</svg>
