<svg width="100" height="101" viewBox="0 0 100 101" fill="none" xmlns="http://www.w3.org/2000/svg">
<g clip-path="url(#clip0_1_554)">
<g clip-path="url(#clip1_1_554)">
<g clip-path="url(#clip2_1_554)">
<path d="M91.1914 31.9932C91.6992 31.6611 91.8555 30.9971 91.6992 30.4893V30.3135C90.5273 24.6494 87.3633 19.6299 82.6953 16.1338C82.1875 15.8018 81.6992 15.626 81.0352 15.958C75.1953 17.9697 70.5078 17.9697 66.8555 15.8018C61.0156 12.3057 60.0195 3.96582 60.0195 3.96582C60.0195 3.30176 59.5117 2.79395 58.8477 2.6377C53.1836 0.293945 46.8359 0.293945 40.9961 2.6377C40.4883 2.81348 40 3.30176 40 3.96582C40 3.96582 39.0039 12.1299 33.1641 15.8018C29.4922 18.1455 24.6484 18.1455 18.8281 15.9775C18.3203 15.6455 17.832 15.8018 17.3242 16.1533C12.6562 19.6494 9.49219 24.6689 8.32031 30.333V30.5088C8.32031 31.0166 8.49609 31.6807 8.82812 32.0127C13.8281 37.0127 16.6602 44.5322 16.6602 52.5205C16.6602 60.5088 13.8281 68.0283 8.82812 73.0283C8.32031 73.3604 8.16406 74.0244 8.32031 74.5322V74.708C9.49219 80.3721 12.6562 85.3916 17.3242 88.8877C17.832 89.2197 18.3203 89.3955 18.8281 89.2197C19.8242 88.8877 40.8398 81.7197 48.5156 99.9033C48.6914 100.567 49.3555 100.899 50.0195 100.899C50.6836 100.899 51.3477 100.567 51.5234 99.7275C59.3555 81.7197 80.3906 88.7119 81.2109 89.0439C81.7188 89.376 82.207 89.2197 82.7148 88.8682C87.3828 85.3721 90.5469 80.3525 91.7188 74.6885V74.5127C91.7188 74.0049 91.543 73.3408 91.2109 73.0088C80.8594 62.6768 80.8594 42.3252 91.1914 31.9932ZM81.3672 85.5283C77.0312 84.3564 58.8477 80.1963 50 95.3721C44.668 86.3682 35.9961 84.2002 28.9844 84.2002C24.3164 84.2002 20.3125 85.1963 18.6328 85.7041C15.293 82.8721 12.793 79.0244 11.7969 74.6885C16.9727 69.1807 19.9609 61.1728 19.9609 52.501C19.9609 43.8291 16.9531 35.8213 11.7969 30.1572C12.793 25.8213 15.293 21.9932 18.6328 19.1416C25.1367 21.3096 30.6445 21.1338 34.9805 18.4775C40.8203 14.8057 42.6562 7.79395 43.1641 5.1377C47.6758 3.63379 52.3438 3.63379 56.8359 5.1377C57.3438 7.81348 59.1797 14.8057 65 18.4775C69.3359 21.1533 74.8438 21.3096 81.3477 19.1416C84.8438 21.9736 87.1875 25.8213 88.1836 30.1572C77.3438 41.8369 77.3438 62.8525 88.1836 74.5322C87.207 78.8682 84.8633 82.6963 81.3672 85.5283Z" fill="#E04141"/>
<path d="M52.168 83.3602C51.5039 84.0243 50.6641 84.5321 50 85.1962C49.3359 84.5321 48.4961 83.868 47.832 83.3602C46.9922 82.8524 45.9961 83.0282 45.4883 83.6923C44.9805 84.3563 45.1563 85.5282 45.8203 86.036C46.9922 86.7001 47.8125 87.5399 48.8281 88.536C49.1602 88.868 49.4922 89.0438 50 89.0438C50.5078 89.0438 50.8398 88.868 51.1719 88.536C52.168 87.6962 53.1641 86.8759 54.1797 86.036C54.8437 85.5282 55.0195 84.3759 54.5117 83.6923C54.0039 83.0282 52.832 82.8719 52.168 83.3602Z" fill="#E04141"/>
<path d="M40 79.3564C37.832 78.5166 35.332 78.0283 32.832 77.8525C31.8359 77.8525 31.1719 78.5166 30.9961 79.3564C30.8203 80.3525 31.6602 81.0166 32.5 81.1924C34.8437 81.3682 37.0117 81.8564 39.0039 82.5205C39.1797 82.5205 39.3359 82.5205 39.5117 82.5205C40.1758 82.5205 40.8398 82.0127 41.0156 81.5244C41.3281 80.5283 40.8203 79.6885 40 79.3564Z" fill="#E04141"/>
<path d="M24.1406 77.8528C22.9687 78.0286 21.7969 78.1848 20.8008 78.3606C20.1367 77.5207 19.6289 76.8567 19.2969 76.0168C19.9609 75.177 20.625 74.1809 21.2891 73.1848C21.6211 72.345 21.4648 71.3489 20.625 70.8411C19.7852 70.509 18.7891 70.6653 18.2812 71.5051C17.6172 72.677 16.9531 73.8489 16.1133 74.845C15.7812 75.3528 15.7812 76.0168 15.9375 76.5051C16.6016 78.3411 17.5977 79.845 18.9453 81.3489C19.1211 81.6809 19.6094 81.8567 20.1172 81.8567C20.1172 81.8567 20.293 81.8567 20.4492 81.8567C21.7773 81.5247 23.125 81.3489 24.4531 81.1926C25.4492 81.0168 26.1133 80.1965 25.957 79.3567C25.8203 78.3606 25.1367 77.6965 24.1406 77.8528Z" fill="#E04141"/>
<path d="M24.8047 40.489C24.6289 39.493 23.6328 38.9851 22.8125 39.3172C21.8164 39.493 21.3086 40.489 21.6406 41.3094C22.3047 43.4773 22.6367 45.8211 22.9688 48.1453C23.1445 48.9851 23.8086 49.6492 24.6289 49.6492C24.6289 49.6492 24.8047 49.6492 24.8047 49.825C25.8008 49.6492 26.4648 48.8289 26.3086 47.989C25.9766 45.5086 25.4883 42.989 24.8047 40.489Z" fill="#E04141"/>
<path d="M24.6484 55.3331C23.6523 55.1573 22.9883 55.9972 22.8125 56.837C22.6367 59.337 22.1484 61.6808 21.4844 63.8487C21.3086 64.6886 21.8164 65.5089 22.6563 65.8409C22.832 65.8409 22.9883 65.8409 23.1641 65.8409C24.0039 65.8409 24.668 65.3331 24.668 64.669C25.332 62.3253 25.8398 59.669 26.1719 57.169C26.1523 56.1729 25.4883 55.5089 24.6484 55.3331Z" fill="#E04141"/>
<path d="M21.1523 31.8172C20.6445 30.8211 19.9805 29.825 19.3164 28.9852C19.6484 28.1453 20.1562 27.4813 20.6445 26.8172C21.8164 26.993 22.9883 27.1492 23.9844 27.325C24.8242 27.325 25.6445 26.661 25.8203 25.8211C25.8203 24.9813 25.1562 24.161 24.1602 23.9852C22.9883 23.8094 21.6602 23.6531 20.332 23.3211C19.668 23.1453 19.0039 23.3211 18.6719 23.8289C17.5 25.157 16.5039 26.8367 15.8398 28.4969C15.5078 29.0047 15.6641 29.6688 16.0156 30.157C16.7969 31.1531 17.4805 32.325 18.1445 33.4969C18.4766 34.0047 19.1406 34.3367 19.6484 34.3367C19.9805 34.3367 20.3125 34.3367 20.4883 34.161C21.3086 33.6531 21.6406 32.657 21.1523 31.8172Z" fill="#E04141"/>
<path d="M38.9844 19.6494C37.1484 21.1533 35.1562 22.4814 32.8125 23.1455C31.9727 23.4775 31.4844 24.4736 31.8164 25.3135C32.1484 25.9775 32.8125 26.4853 33.4766 26.4853C33.6523 26.4853 33.8086 26.4853 33.8086 26.4853C36.4844 25.4893 38.9844 24.1416 41.1523 22.1494C41.8164 21.4853 41.9922 20.4893 41.3281 19.8057C40.6641 19.1416 39.6484 18.9853 38.9844 19.6494Z" fill="#E04141"/>
<path d="M54.1797 8.96582C54.0039 8.30176 53.5156 7.96973 52.8516 7.79395C51.0156 7.46191 49.0234 7.46191 47.0117 7.79395C46.3477 7.96973 45.8398 8.30176 45.6836 8.96582C45.3516 10.2939 44.8438 11.4658 44.3555 12.6377C44.0234 13.4775 44.3555 14.4736 45.1953 14.8057C45.3711 14.9814 45.7031 14.9814 45.8594 14.9814C46.5234 14.9814 47.0312 14.6494 47.0312 13.9854C47.5391 12.9893 48.0273 11.8174 48.3594 10.8213C49.3555 10.6455 50.1953 10.6455 51.1914 10.8213C51.6992 11.9932 52.0312 12.9893 52.5195 13.9854C52.8516 14.8252 53.8477 15.1572 54.6875 14.8252C55.5273 14.4932 55.8594 13.4971 55.5273 12.6572C55 11.4658 54.5117 10.3135 54.1797 8.96582Z" fill="#E04141"/>
<path d="M66.5234 26.4854C67.1875 26.4854 67.8516 25.9775 68.0273 25.3135C68.3594 24.3174 67.8516 23.4775 67.0313 23.1455C64.6875 22.4814 62.6953 21.3096 60.8594 19.6494C60.1953 19.1416 59.1992 19.1416 58.5156 19.8252C58.0078 20.4893 58.0078 21.4854 58.6914 22.1689C60.8594 24.1611 63.3594 25.665 66.0352 26.5049C66.1719 26.4854 66.3477 26.4854 66.5234 26.4854Z" fill="#E04141"/>
<path d="M76.0156 27.3251C77.1875 27.3251 78.1836 26.9931 79.3555 26.8173C79.8633 27.4813 80.3516 28.1454 80.6836 28.9852C80.0195 29.8251 79.3555 30.8212 78.8477 31.8173C78.5156 32.6571 78.6719 33.6532 79.5117 34.161C79.8437 34.3368 80.0195 34.3368 80.3516 34.3368C80.8594 34.3368 81.3477 34.0048 81.6797 33.497C82.3438 32.3251 83.0078 31.1532 83.8477 30.1571C84.1797 29.6493 84.1797 28.9852 84.0234 28.497C83.3594 26.8368 82.3633 25.1571 81.1914 23.829C80.6836 23.3212 80.1953 23.1649 79.5312 23.3212C78.2031 23.6532 77.0312 23.829 75.7031 23.9852C74.707 24.161 74.043 24.9813 74.1992 25.8212C74.3555 26.8173 75.0195 27.4813 76.0156 27.3251Z" fill="#E04141"/>
<path d="M75.1953 49.669H75.3711C76.2109 49.669 76.875 49.1612 77.0313 48.1651C77.207 45.6651 77.6953 43.3213 78.3594 41.1533C78.5352 40.3135 78.0273 39.3174 77.1875 39.1612C76.3477 38.9854 75.5273 39.4932 75.1953 40.333C74.5313 42.6768 74.0234 45.333 73.6914 47.833C73.6914 48.6729 74.3555 49.5127 75.1953 49.669Z" fill="#E04141"/>
<path d="M76.8555 65.8602C77.0312 65.8602 77.1875 65.8602 77.1875 65.8602C78.1836 65.6844 78.6914 64.6883 78.3594 63.868C77.6953 61.5242 77.3633 59.2 77.0312 56.8563C76.8555 55.8602 76.1914 55.1961 75.1953 55.3524C74.1992 55.5281 73.5352 56.3484 73.6914 57.1883C74.0234 59.6883 74.5312 62.1883 75.1953 64.6883C75.5273 65.3524 76.1914 65.8602 76.8555 65.8602Z" fill="#E04141"/>
<path d="M78.8477 73.1847C79.3555 74.1808 80.0195 75.1769 80.6836 76.0168C80.1758 76.8566 79.6875 77.6769 79.1797 78.3605C78.0078 78.1847 77.0117 78.0285 75.8398 77.8527C74.8437 77.8527 74.1797 78.5168 74.0039 79.3566C74.0039 80.1964 74.668 81.0168 75.5078 81.1925C76.8359 81.3683 78.1836 81.5246 79.5117 81.8566C79.6875 81.8566 79.6875 81.8566 79.8437 81.8566C80.3516 81.8566 80.8398 81.6808 81.1719 81.3488C82.5 79.8449 83.5156 78.341 84.1797 76.505C84.5117 75.9972 84.3555 75.3332 84.0039 74.8449C83.1641 73.8488 82.5 72.6769 81.8359 71.505C81.3281 70.6652 80.332 70.3332 79.4922 70.841C78.6914 71.3488 78.3594 72.3644 78.8477 73.1847Z" fill="#E04141"/>
<path d="M67.1875 77.6963C64.6875 78.0283 62.3437 78.5361 60.0195 79.2002C59.1797 79.5322 58.6914 80.5283 59.0234 81.3682C59.3555 82.0322 60.0195 82.54 60.6836 82.54C60.8594 82.54 61.0156 82.3643 61.0156 82.3643C63.0078 81.7002 65.1953 81.1924 67.5195 81.0361C68.5156 80.8604 69.1797 80.04 69.0234 79.2002C68.8477 78.2041 68.1836 77.6963 67.1875 77.6963Z" fill="#E04141"/>
</g>
</g>
</g>
<defs>
<clipPath id="clip0_1_554">
<rect width="100" height="100" fill="white" transform="translate(0 0.879883)"/>
</clipPath>
<clipPath id="clip1_1_554">
<rect width="100" height="100" fill="white" transform="translate(0 0.879883)"/>
</clipPath>
<clipPath id="clip2_1_554">
<rect width="100" height="100" fill="white" transform="translate(0 0.879883)"/>
</clipPath>
</defs>
</svg>
