<svg width="100" height="101" viewBox="0 0 100 101" fill="none" xmlns="http://www.w3.org/2000/svg">
<g clip-path="url(#clip0_1_470)">
<g clip-path="url(#clip1_1_470)">
<g clip-path="url(#clip2_1_470)">
<path d="M21.9141 13.1455L13.6719 4.90332C13.3594 4.59082 12.9297 4.41504 12.5 4.41504C12.0508 4.41504 11.6406 4.59082 11.3281 4.90332L4.23828 11.9736C3.59375 12.6182 3.59375 13.6729 4.23828 14.3369L12.4805 22.5791C12.8125 22.9111 13.2227 23.0674 13.6523 23.0674C14.082 23.0674 14.5117 22.9111 14.8242 22.5791L21.8945 15.5088C22.207 15.1963 22.3828 14.7666 22.3828 14.3369C22.3828 13.9072 22.2266 13.458 21.9141 13.1455ZM13.6719 19.0439L7.77344 13.1455L12.4805 8.43848L18.3789 14.3369L13.6719 19.0439Z" fill="#E04141"/>
<path d="M58.4375 47.3252L23.0859 11.9736C22.4609 11.3486 21.3477 11.3486 20.7227 11.9736L11.2891 21.4072C10.6445 22.0518 10.6445 23.1064 11.2891 23.7705L46.6406 59.1221C46.9727 59.4541 47.3828 59.6104 47.8125 59.6104C48.2422 59.6104 48.6719 59.4541 48.9844 59.1221L58.418 49.6885C58.7305 49.376 58.9062 48.9463 58.9062 48.5166C58.9258 48.0674 58.75 47.6377 58.4375 47.3252ZM47.832 55.5869L14.8242 22.5791L21.8945 15.5088L54.9023 48.5166L47.832 55.5869Z" fill="#E04141"/>
<path d="M65.8789 54.9425C65.625 54.3175 65.0195 53.9074 64.336 53.9074C61.5625 53.9074 58.9258 51.2902 58.9258 48.4972C58.9258 47.8332 58.5156 47.2082 57.8906 46.9543C57.2656 46.7003 56.543 46.8371 56.0742 47.3254L46.6406 56.7589C46.1719 57.2277 46.0156 57.9503 46.2695 58.5753C46.5234 59.2003 47.1289 59.6105 47.8125 59.6105C49.1406 59.6105 50.4883 60.216 51.543 61.2707C52.5977 62.3254 53.2031 63.6925 53.2031 65.0011C53.2031 65.6652 53.6133 66.2902 54.2383 66.5441C54.4531 66.6222 54.668 66.6613 54.8828 66.6613C55.3125 66.6613 55.7422 66.4855 56.0547 66.173L65.4883 56.7394C65.9961 56.2902 66.1328 55.5675 65.8789 54.9425ZM55.8594 61.7003C55.4102 60.6847 54.7656 59.7277 53.9453 58.9074C53.125 58.0871 52.168 57.4425 51.1524 56.9933L56.3281 51.8175C57.2461 53.8878 58.9844 55.6066 61.0352 56.5246L55.8594 61.7003Z" fill="#E04141"/>
<path d="M84.375 73.2627L65.5273 54.3955C64.8828 53.751 63.8281 53.751 63.1641 54.3955L53.7305 63.8291C53.418 64.1416 53.2422 64.5713 53.2422 65.001C53.2422 65.4307 53.418 65.8603 53.7305 66.1728L72.5781 85.0205C72.8906 85.333 73.3203 85.5088 73.75 85.5088C74.1797 85.5088 74.6094 85.333 74.9219 85.0205L84.3555 75.5869C85.0195 74.9619 85.0195 73.9072 84.375 73.2627ZM73.7695 81.5049L57.2656 65.001L64.3359 57.9307L80.8398 74.4346L73.7695 81.5049Z" fill="#E04141"/>
<path d="M91.582 83.0477L83.2227 74.454C82.9102 74.1415 82.4805 73.9462 82.0312 73.9462C81.6211 73.9266 81.1523 74.1219 80.8398 74.4344L73.7695 81.5048C73.125 82.1493 73.125 83.1844 73.75 83.8485L82.1094 92.4423C82.4219 92.7548 82.8516 92.9501 83.3008 92.9501C83.3008 92.9501 83.3008 92.9501 83.3203 92.9501C83.7695 92.9501 84.1797 92.7743 84.4922 92.4618L91.5625 85.3915C92.207 84.7469 92.207 83.7118 91.582 83.0477ZM83.3203 88.9071L77.2852 82.6962L81.9922 77.9891L88.0273 84.2001L83.3203 88.9071Z" fill="#E04141"/>
<path d="M96.0156 92.3253L91.9141 83.4972C91.6797 83.0089 91.2305 82.6574 90.6836 82.5597C90.1563 82.462 89.5899 82.6378 89.2188 83.0285L82.1484 90.0988C81.7578 90.4894 81.582 91.0363 81.6797 91.5636C81.7774 92.091 82.1289 92.5597 82.6172 92.7941L91.4453 96.8956C91.6602 96.9933 91.9141 97.0519 92.1484 97.0519C92.5781 97.0519 93.0078 96.8761 93.3203 96.5636L95.6836 94.2003C96.1719 93.712 96.3086 92.9699 96.0156 92.3253ZM91.7774 93.38L86.1719 90.7628L89.8828 87.0519L92.5 92.6574L91.7774 93.38Z" fill="#E04141"/>
<path d="M99.4922 98.0283L94.4922 93.0283C93.8476 92.3838 92.793 92.3838 92.1289 93.0283C91.4648 93.6729 91.4844 94.7275 92.1289 95.3916L97.1289 100.392C97.4609 100.724 97.8711 100.88 98.3008 100.88C98.7305 100.88 99.1601 100.724 99.4726 100.392C100.137 99.7471 100.137 98.6924 99.4922 98.0283Z" fill="#E04141"/>
<path d="M43.125 32.0127L36.0547 24.9424C35.4102 24.2979 34.3555 24.2979 33.6914 24.9424L24.2578 34.376C23.6133 35.0205 23.6133 36.0752 24.2578 36.7393L31.3281 43.8096C31.6406 44.1221 32.0703 44.2979 32.5 44.2979C32.9297 44.2979 33.3594 44.1221 33.6719 43.8096L43.1055 34.376C43.418 34.0635 43.5938 33.6338 43.5938 33.2041C43.5938 32.7744 43.4375 32.3252 43.125 32.0127ZM32.5195 40.2549L27.8125 35.5479L34.8828 28.4775L39.5898 33.1846L32.5195 40.2549Z" fill="#E04141"/>
<path d="M12.4805 6.0752L7.77344 1.36816C7.12891 0.723633 6.07422 0.723633 5.41016 1.36816L0.703125 6.0752C0.390625 6.3877 0.214844 6.81738 0.214844 7.24707C0.214844 7.67676 0.390625 8.10644 0.703125 8.41894L5.41016 13.126C5.74219 13.458 6.15234 13.6143 6.58203 13.6143C7.01172 13.6143 7.44141 13.458 7.75391 13.126L12.4609 8.41894C12.7734 8.10644 12.9492 7.67676 12.9492 7.24707C12.9492 6.81738 12.793 6.3877 12.4805 6.0752ZM6.60156 9.61035L4.23828 7.2666L6.60156 4.90332L8.96484 7.2666L6.60156 9.61035Z" fill="#E04141"/>
<path d="M14.1992 22.1883C13.3203 21.8953 12.3828 22.364 12.0898 23.243L9.72657 30.3133C9.4336 31.1922 9.90235 32.1297 10.7813 32.4226C10.957 32.4812 11.1328 32.5008 11.3086 32.5008C12.0117 32.5008 12.6563 32.0515 12.8906 31.368L15.2539 24.2976C15.5273 23.4187 15.0586 22.4617 14.1992 22.1883Z" fill="#E04141"/>
<path d="M27.8125 44.9814L12.5 29.6689C11.8555 29.0244 10.8008 29.0244 10.1367 29.6689C9.49219 30.3135 9.49219 31.3682 10.1367 32.0322L25.4492 47.3447C25.7812 47.6768 26.1914 47.833 26.6211 47.833C27.0508 47.833 27.4805 47.6768 27.793 47.3447C28.457 46.6807 28.457 45.626 27.8125 44.9814Z" fill="#E04141"/>
<path d="M80.6445 12.0127L74.7461 6.11426C74.1016 5.46973 73.0469 5.46973 72.3828 6.11426C71.7383 6.75879 71.7383 7.81348 72.3828 8.47754L78.2812 14.376C78.6133 14.708 79.0234 14.8643 79.4531 14.8643C79.8828 14.8643 80.3125 14.708 80.625 14.376C81.2891 13.7119 81.2891 12.6572 80.6445 12.0127Z" fill="#E04141"/>
<path d="M73.5547 14.376L70.0195 10.8408C69.375 10.1963 68.3203 10.1963 67.6562 10.8408C67.0117 11.4854 67.0117 12.54 67.6562 13.2041L71.1914 16.7393C71.5234 17.0713 71.9336 17.2275 72.3633 17.2275C72.793 17.2275 73.2227 17.0713 73.5352 16.7393C74.2188 16.0752 74.2188 15.0205 73.5547 14.376Z" fill="#E04141"/>
<path d="M71.2109 21.4463L65.3125 15.5479C64.668 14.9033 63.6133 14.9033 62.9492 15.5479C62.2852 16.1924 62.3047 17.2471 62.9492 17.9111L68.8477 23.8096C69.1797 24.1416 69.5898 24.2979 70.0195 24.2979C70.4492 24.2979 70.8789 24.1416 71.1914 23.8096C71.8555 23.1455 71.8555 22.0908 71.2109 21.4463Z" fill="#E04141"/>
<path d="M64.1406 23.79L60.6055 20.2549C59.9609 19.6104 58.9062 19.6104 58.2422 20.2549C57.5977 20.8994 57.5977 21.9541 58.2422 22.6182L61.7773 26.1533C62.1094 26.4854 62.5195 26.6416 62.9492 26.6416C63.3789 26.6416 63.8086 26.4854 64.1211 26.1533C64.7852 25.5088 64.7852 24.4541 64.1406 23.79Z" fill="#E04141"/>
<path d="M61.7773 30.8799L55.8789 24.9814C55.2344 24.3369 54.1797 24.3369 53.5156 24.9814C52.8516 25.626 52.8711 26.6807 53.5156 27.3447L59.4141 33.2432C59.7461 33.5752 60.1562 33.7314 60.5859 33.7314C61.0156 33.7314 61.4453 33.5752 61.7578 33.2432C62.4219 32.5791 62.4219 31.5244 61.7773 30.8799Z" fill="#E04141"/>
<path d="M54.707 33.2236L51.1719 29.6885C50.5273 29.0439 49.4727 29.0439 48.8086 29.6885C48.1445 30.333 48.1641 31.3877 48.8086 32.0518L52.3437 35.5869C52.6758 35.9189 53.0859 36.0752 53.5156 36.0752C53.9453 36.0752 54.375 35.9189 54.6875 35.5869C55.3516 34.9229 55.3516 33.8682 54.707 33.2236Z" fill="#E04141"/>
<path d="M35.8594 52.0908L32.3242 48.5557C31.6797 47.9111 30.625 47.9111 29.9609 48.5557C29.2969 49.2002 29.3164 50.2549 29.9609 50.9189L33.4961 54.4541C33.8281 54.7861 34.2383 54.9424 34.668 54.9424C35.0977 54.9424 35.5273 54.7861 35.8398 54.4541C36.5039 53.79 36.5039 52.7354 35.8594 52.0908Z" fill="#E04141"/>
<path d="M33.4961 59.1611L27.5977 53.2627C26.9531 52.6182 25.8984 52.6182 25.2344 53.2627C24.5898 53.9072 24.5898 54.9619 25.2344 55.626L31.1328 61.5244C31.4648 61.8564 31.875 62.0127 32.3047 62.0127C32.7344 62.0127 33.1641 61.8564 33.4766 61.5244C34.1406 60.8603 34.1406 59.8057 33.4961 59.1611Z" fill="#E04141"/>
<path d="M26.4258 61.5049L22.8906 57.9697C22.2461 57.3252 21.1914 57.3252 20.5273 57.9697C19.8828 58.6143 19.8828 59.6689 20.5273 60.333L24.0625 63.8682C24.3945 64.2002 24.8047 64.3564 25.2344 64.3564C25.6641 64.3564 26.0937 64.2002 26.4062 63.8682C27.0703 63.2236 27.0703 62.1689 26.4258 61.5049Z" fill="#E04141"/>
<path d="M24.0625 68.5752L18.1641 62.6768C17.5195 62.0322 16.4648 62.0322 15.8008 62.6768C15.1367 63.3213 15.1562 64.376 15.8008 65.04L21.6992 70.9385C22.0312 71.2705 22.4414 71.4268 22.8711 71.4268C23.3008 71.4268 23.7305 71.2705 24.043 70.9385C24.7266 70.2939 24.7266 69.2393 24.0625 68.5752Z" fill="#E04141"/>
<path d="M17.7344 71.5049L14.1992 67.9697C13.5547 67.3252 12.5 67.3252 11.8359 67.9697C11.1914 68.6143 11.1914 69.6689 11.8359 70.333L15.3711 73.8682C15.7031 74.2002 16.1133 74.3564 16.543 74.3564C16.9727 74.3564 17.4023 74.2002 17.7148 73.8682C18.3984 73.2041 18.3984 72.1494 17.7344 71.5049Z" fill="#E04141"/>
<path d="M15.3906 78.5752L9.49219 72.6768C8.84766 72.0322 7.79297 72.0322 7.12891 72.6768C6.48437 73.3213 6.48437 74.376 7.12891 75.04L13.0273 80.9385C13.3594 81.2705 13.7695 81.4268 14.1992 81.4268C14.6289 81.4268 15.0586 81.2705 15.3711 80.9385C16.0352 80.2744 16.0352 79.2197 15.3906 78.5752Z" fill="#E04141"/>
<path d="M26.2305 82.501L24.2969 80.5674C22.8906 79.1611 20.5859 79.1611 19.1602 80.5674L17.2266 82.501C15.8203 83.9072 15.8203 86.2119 17.2266 87.6377L19.1602 89.5713C19.8633 90.2744 20.8008 90.626 21.7188 90.626C22.6562 90.626 23.5742 90.2744 24.2773 89.5713L26.2109 87.6377C27.6367 86.2314 27.6367 83.9268 26.2305 82.501ZM23.8672 85.2744L21.9336 87.208C21.8164 87.3252 21.6211 87.3252 21.5039 87.208L19.5703 85.2744C19.4531 85.1572 19.4531 84.9619 19.5703 84.8643L21.5039 82.9307C21.6211 82.8135 21.8164 82.8135 21.9141 82.9307L23.8477 84.8643C23.9844 84.9814 23.9844 85.1572 23.8672 85.2744Z" fill="#E04141"/>
<path d="M99.4922 21.4463L79.4531 1.40723C78.8086 0.762695 77.7539 0.762695 77.0898 1.40723L43.6328 34.8643C42.9883 35.5088 42.9883 36.5635 43.6328 37.2275L55.6445 49.2393C56.0352 53.2822 59.5898 56.8369 63.6133 57.208L63.6719 57.2666C63.9844 57.5791 64.4141 57.7549 64.8438 57.7549C65.293 57.7549 65.7031 57.5791 66.0156 57.2666L99.4727 23.79C99.7852 23.4775 99.9609 23.0479 99.9609 22.6182C99.9805 22.1885 99.8047 21.7588 99.4922 21.4463ZM64.6484 53.9463C64.5508 53.9268 64.4531 53.9268 64.3555 53.9268C61.582 53.9268 58.9453 51.3096 58.9453 48.5166C58.9453 48.0674 58.7695 47.6572 58.457 47.3447L47.1875 36.0752L78.2812 4.94238L95.957 22.6182L64.6484 53.9463Z" fill="#E04141"/>
<path d="M56.6016 64.3369L56.543 64.2783C56.1523 60.2354 52.5977 56.6807 48.5742 56.3096L36.5625 44.2979C35.918 43.6533 34.8633 43.6533 34.1992 44.2979L0.507812 78.0088C-0.136719 78.6533 -0.136719 79.708 0.507812 80.3721L20.5469 100.411C20.8594 100.724 21.2891 100.899 21.7188 100.899C22.168 100.899 22.5781 100.724 22.8906 100.411L56.6016 66.7002C57.2461 66.0361 57.2461 64.9814 56.6016 64.3369ZM21.7188 96.8564L4.04297 79.1807L35.3906 47.833L46.6602 59.1025C46.9727 59.415 47.4023 59.5908 47.832 59.5908C50.6055 59.5908 53.2422 62.208 53.2422 65.001C53.2422 65.0986 53.2422 65.1963 53.2617 65.2939L21.7188 96.8564Z" fill="#E04141"/>
</g>
</g>
</g>
<defs>
<clipPath id="clip0_1_470">
<rect width="100" height="100" fill="white" transform="translate(0 0.879883)"/>
</clipPath>
<clipPath id="clip1_1_470">
<rect width="100" height="100" fill="white" transform="translate(0 0.879883)"/>
</clipPath>
<clipPath id="clip2_1_470">
<rect width="100" height="100" fill="white" transform="translate(0 0.879883)"/>
</clipPath>
</defs>
</svg>
