<svg width="34" height="35" viewBox="0 0 34 35" fill="none" xmlns="http://www.w3.org/2000/svg">
<g clip-path="url(#clip0_1_967)">
<path d="M17 33.4375C25.802 33.4375 32.9375 26.302 32.9375 17.5C32.9375 8.69796 25.802 1.5625 17 1.5625C8.19796 1.5625 1.0625 8.69796 1.0625 17.5C1.0625 26.302 8.19796 33.4375 17 33.4375ZM17 34.5C7.61116 34.5 0 26.8888 0 17.5C0 8.11116 7.61116 0.5 17 0.5C26.3888 0.5 34 8.11116 34 17.5C34 26.8888 26.3888 34.5 17 34.5Z" fill="#E04141"/>
<path d="M14.4907 27.0625H17.9704V17.5047H20.5808L21.0971 14.5182H17.9704V12.3541C17.9704 11.6565 18.4215 10.924 19.0662 10.924H20.8432V7.9375H18.6654V7.95089C15.2579 8.07456 14.5577 10.048 14.4971 12.121H14.4907V14.5182H12.75V17.5047H14.4907V27.0625Z" fill="#E04141"/>
</g>
<defs>
<clipPath id="clip0_1_967">
<rect y="0.5" width="34" height="34" rx="17" fill="white"/>
</clipPath>
</defs>
</svg>
