<svg width="34" height="35" viewBox="0 0 34 35" fill="none" xmlns="http://www.w3.org/2000/svg">
<g clip-path="url(#clip0_1_973)">
<path d="M17 33.4375C25.802 33.4375 32.9375 26.302 32.9375 17.5C32.9375 8.69796 25.802 1.5625 17 1.5625C8.19796 1.5625 1.0625 8.69796 1.0625 17.5C1.0625 26.302 8.19796 33.4375 17 33.4375ZM17 34.5C7.61116 34.5 0 26.8888 0 17.5C0 8.11116 7.61116 0.5 17 0.5C26.3888 0.5 34 8.11116 34 17.5C34 26.8888 26.3888 34.5 17 34.5Z" fill="#E04141"/>
<path d="M13.4986 9C10.7548 9 8.5 11.2518 8.5 13.9986V21.0014C8.5 23.7452 10.7518 26 13.4986 26H20.5014C23.2452 26 25.5 23.7482 25.5 21.0014V13.9986C25.5 11.2548 23.2482 9 20.5014 9H13.4986ZM13.4986 10.5455H20.5014C22.4121 10.5455 23.9545 12.0879 23.9545 13.9986V21.0014C23.9545 22.9121 22.4121 24.4545 20.5014 24.4545H13.4986C11.5879 24.4545 10.0455 22.9121 10.0455 21.0014V13.9986C10.0455 12.0879 11.5879 10.5455 13.4986 10.5455ZM21.5639 12.2358C21.1745 12.2358 20.8636 12.5467 20.8636 12.9361C20.8636 13.3255 21.1745 13.6364 21.5639 13.6364C21.9533 13.6364 22.2642 13.3255 22.2642 12.9361C22.2642 12.5467 21.9533 12.2358 21.5639 12.2358ZM17 12.8636C14.4494 12.8636 12.3636 14.9494 12.3636 17.5C12.3636 20.0506 14.4494 22.1364 17 22.1364C19.5506 22.1364 21.6364 20.0506 21.6364 17.5C21.6364 14.9494 19.5506 12.8636 17 12.8636ZM17 14.4091C18.7175 14.4091 20.0909 15.7825 20.0909 17.5C20.0909 19.2175 18.7175 20.5909 17 20.5909C15.2825 20.5909 13.9091 19.2175 13.9091 17.5C13.9091 15.7825 15.2825 14.4091 17 14.4091Z" fill="#E04141"/>
</g>
<defs>
<clipPath id="clip0_1_973">
<rect y="0.5" width="34" height="34" rx="17" fill="white"/>
</clipPath>
</defs>
</svg>
