<svg width="34" height="35" viewBox="0 0 34 35" fill="none" xmlns="http://www.w3.org/2000/svg">
<g clip-path="url(#clip0_1_983)">
<path d="M17 33.4375C25.802 33.4375 32.9375 26.302 32.9375 17.5C32.9375 8.69796 25.802 1.5625 17 1.5625C8.19796 1.5625 1.0625 8.69796 1.0625 17.5C1.0625 26.302 8.19796 33.4375 17 33.4375ZM17 34.5C7.61116 34.5 0 26.8888 0 17.5C0 8.11116 7.61116 0.5 17 0.5C26.3888 0.5 34 8.11116 34 17.5C34 26.8888 26.3888 34.5 17 34.5Z" fill="#E04141"/>
<path d="M26.3839 12.7054C26.2229 11.2954 25.8867 10.8844 25.6486 10.6931C25.2705 10.3955 24.5842 10.2892 23.6668 10.2255C22.1962 10.1263 19.6961 10.0625 17 10.0625C14.2969 10.0625 11.8038 10.1192 10.3332 10.2255C9.41583 10.2892 8.72954 10.3955 8.35138 10.6931C8.11328 10.8844 7.78414 11.2954 7.61607 12.7054C7.37798 14.739 7.37798 19.373 7.61607 21.4065C7.78414 22.8165 8.11328 23.2275 8.35138 23.4188C8.72954 23.7164 9.41583 23.8227 10.3332 23.8865C11.8038 23.9857 14.2969 24.0494 17 24.0494C19.7031 24.0494 22.1962 23.9857 23.6668 23.8865C24.5842 23.8227 25.2705 23.7164 25.6486 23.4188C25.8867 23.2346 26.2159 22.8165 26.3839 21.4065C26.622 19.373 26.622 14.739 26.3839 12.7054ZM14.689 20.0957V14.0092L20.4594 17.0489L14.689 20.0957Z" fill="#E04141"/>
</g>
<defs>
<clipPath id="clip0_1_983">
<rect y="0.5" width="34" height="34" rx="17" fill="white"/>
</clipPath>
</defs>
</svg>
